<svg height="800px" width="800px" version="1.1" id="Layer_1" xmlns="http://www.w3.org/2000/svg" xmlns:xlink="http://www.w3.org/1999/xlink" 
	 viewBox="0 0 496.2 496.2" xml:space="preserve">
<path style="fill:#CBD1D1;" d="M367.9,206.4c0,2.2-1.8,4-4,4h-24.4c-2.2,0-4-1.8-4-4V154c0-2.2,1.8-4,4-4h24.4c2.2,0,4,1.8,4,4
	V206.4z"/>
<path style="fill:#FFBD02;" d="M236.3,99.2c2.2,0,4,1.8,4,4v24.4c0,2.2-1.8,4-4,4h-43.9c-2.2,0-4-1.8-4-4v-24.5c0-2.2,1.8-4,4-4
	h43.9V99.2z"/>
<path style="fill:#D1E9ED;" d="M352.3,414.2c0,2.7-2.1,4.8-4.8,4.8h-198c-2.7,0-4.8-2.1-4.8-4.8V120.1c0-2.7,2.2-4.8,4.8-4.8h198
	c2.7,0,4.8,2.1,4.8,4.8V414.2z"/>
<path style="fill:#2A626B;" d="M313.9,419H149.5c-2.7,0-4.8-2.1-4.8-4.8V120.1c0-2.7,2.2-4.8,4.8-4.8h164.4V419z"/>
<path style="fill:#3A3A38;" d="M274.6,115.1c0.2,0.2,0.6,0.3,0.9,0.3h17.7c0.3,0,0.7-0.1,0.9-0.3c0.2-0.2,0.3-0.4,0.3-0.7l-4.3-36.3
	c-0.1-0.5-0.6-0.8-1.2-0.8h-9.1c-0.6,0-1.2,0.3-1.2,0.8l-4.3,36.3C274.2,114.7,274.4,114.9,274.6,115.1z"/>
<path style="fill:#5B5B5B;" d="M293.2,115.4c0.3,0,0.7-0.1,0.9-0.3c0.2-0.2,0.3-0.4,0.3-0.7l-4.3-36.3c-0.1-0.5-0.6-0.8-1.2-0.8
	h-4.5v38.1C284.4,115.4,293.2,115.4,293.2,115.4z"/>
<path style="fill:#3A3A38;" d="M307.8,115.3h-5V70.9c0-7.1-4.1-10.3-8-10.3c-4,0-8,3.3-8,10.7v6.8h-5v-6.8c0-10.3,6.5-15.7,13-15.7
	c6.4,0,13,5.3,13,15.3V115.3z"/>
<path style="fill:#337180;" d="M313.9,419H149.5c-2.7,0-4.8-2.1-4.8-4.8V157.1h169.2V419z"/>
<path style="fill:#453939;" d="M261.2,195.9c2,0,3.5,1.6,3.5,3.5v201.2c0,2-1.6,3.5-3.5,3.5h-72.3c-2,0-3.5-1.6-3.5-3.5V199.4
	c0-2,1.6-3.5,3.5-3.5H261.2z"/>
<path style="fill:#E5DADA;" d="M241,269.9c1.3,0,2.4,1.1,2.4,2.4v41.2c0,1.3-1.1,2.4-2.4,2.4h-31.5c-1.3,0-2.4-1.1-2.4-2.4v-41.2
	c0-1.3,1.1-2.4,2.4-2.4H241z"/>
<g>
	<circle style="fill:#5F574A;" cx="225.2" cy="338.4" r="14.3"/>
	<circle style="fill:#5F574A;" cx="225.2" cy="248.8" r="14.3"/>
</g>
<g>
	<circle style="fill:#2D2626;" cx="225.2" cy="248.8" r="10.8"/>
	<circle style="fill:#2D2626;" cx="225.2" cy="338.4" r="10.8"/>
</g>
<path style="opacity:0.2;fill:#FAF6F3;enable-background:new    ;" d="M261.2,195.9c1,0,1.9,0.4,2.5,1S187,403.8,186.4,403.1
	s-1-1.5-1-2.5V199.4c0-2,1.6-3.5,3.5-3.5H261.2z"/>
</svg>