<svg viewBox="0 0 200 200" xmlns="http://www.w3.org/2000/svg">
  <path fill="#7D80DA" d="M32.2,-57.7C41.5,-50.3,48.8,-41.4,54.9,-31.5C60.9,-21.6,65.7,-10.8,69.8,2.3C73.9,15.5,77.2,31,73,44.1C68.8,57.2,57.1,68,43.7,73C30.3,78,15.2,77.3,1.4,74.9C-12.4,72.5,-24.8,68.5,-38.9,63.9C-53.1,59.3,-69,54.1,-76.3,43.4C-83.5,32.7,-82.2,16.3,-81.7,0.3C-81.1,-15.7,-81.2,-31.3,-73.2,-40.9C-65.3,-50.5,-49.2,-53.9,-35.7,-58.9C-22.1,-63.9,-11.1,-70.4,0.2,-70.7C11.4,-71,22.8,-65.1,32.2,-57.7Z" transform="translate(100 100)" />
</svg>